<?xml version="1.0" encoding="utf-8"?>
<!-- Generator: Adobe Illustrator 16.0.0, SVG Export Plug-In . SVG Version: 6.00 Build 0)  -->
<!DOCTYPE svg PUBLIC "-//W3C//DTD SVG 1.1//EN" "http://www.w3.org/Graphics/SVG/1.1/DTD/svg11.dtd">
<svg version="1.1" id="图层_1" xmlns="http://www.w3.org/2000/svg" xmlns:xlink="http://www.w3.org/1999/xlink" x="0px" y="0px"
	 width="160px" height="160px" viewBox="0 0 160 160" enable-background="new 0 0 160 160" xml:space="preserve">
<g>
	<g>
		<path fill="#D8D8D8" d="M81.085,160c-43.514,0-78.913-35.402-78.913-78.914c0-43.514,35.399-78.915,78.913-78.915
			S160,37.572,160,81.086C160,124.598,124.599,160,81.085,160z M81.085,4.257c-42.362,0-76.827,34.465-76.827,76.829
			c0,42.363,34.465,76.828,76.827,76.828c42.364,0,76.83-34.465,76.83-76.828C157.915,38.722,123.449,4.257,81.085,4.257z"/>
	</g>
	<g>
		<path fill="#522010" d="M8.344,81.086H0C0,36.375,36.374,0,81.085,0v8.343C40.976,8.343,8.344,40.975,8.344,81.086z"/>
	</g>
</g>
</svg>
