<?xml version="1.0" encoding="utf-8"?>
<!-- Generator: Adobe Illustrator 16.0.0, SVG Export Plug-In . SVG Version: 6.00 Build 0)  -->
<!DOCTYPE svg PUBLIC "-//W3C//DTD SVG 1.1//EN" "http://www.w3.org/Graphics/SVG/1.1/DTD/svg11.dtd">
<svg version="1.1" id="图层_1" xmlns="http://www.w3.org/2000/svg" xmlns:xlink="http://www.w3.org/1999/xlink" x="0px" y="0px"
	 width="160px" height="160px" viewBox="0 0 160 160" enable-background="new 0 0 160 160" xml:space="preserve">
<g>
	<g>
		<path fill="#D8D8D8" d="M79.997,157.859c-42.928,0-77.854-34.931-77.854-77.859c0-42.928,34.926-77.854,77.854-77.854
			c42.934,0,77.854,34.926,77.854,77.854C157.852,122.929,122.931,157.859,79.997,157.859z M79.997,4.202
			C38.202,4.202,4.199,38.205,4.199,80c0,41.796,34.003,75.799,75.798,75.799c41.791,0,75.794-34.003,75.794-75.799
			C155.791,38.205,121.788,4.202,79.997,4.202z"/>
	</g>
	<g>
		<path fill="#522010" d="M79.997,159.998c-21.229,0-41.229-8.232-56.307-23.174l5.796-5.85
			c13.525,13.408,31.464,20.791,50.511,20.791c39.574,0,71.771-32.196,71.771-71.766c0-39.574-32.196-71.766-71.771-71.766
			C40.423,8.234,8.232,40.426,8.232,80H0C0,35.89,35.887,0.002,79.997,0.002C124.112,0.002,160,35.89,160,80
			C160,124.11,124.112,159.998,79.997,159.998z"/>
	</g>
</g>
</svg>
