<?xml version="1.0" encoding="utf-8"?>
<!-- Generator: Adobe Illustrator 16.0.0, SVG Export Plug-In . SVG Version: 6.00 Build 0)  -->
<!DOCTYPE svg PUBLIC "-//W3C//DTD SVG 1.1//EN" "http://www.w3.org/Graphics/SVG/1.1/DTD/svg11.dtd">
<svg version="1.1" id="图层_1" xmlns="http://www.w3.org/2000/svg" xmlns:xlink="http://www.w3.org/1999/xlink" x="0px" y="0px"
	 width="160px" height="160px" viewBox="0 0 160 160" enable-background="new 0 0 160 160" xml:space="preserve">
<path fill="#FFFFFF" d="M454.76,78.572l55.952-0.804l0.273,10.585l-64.864-1.04L445.3,55.558l-39.636-0.153l-0.59,44.468
	l73.555,0.98l0.051,8.682l-73.555-0.98l-1.847,83.223l-43.449,0.297l-0.893-7.615l18.221-1.184l-0.08-50.182l-27.976,0.402
	l-0.274-10.584l37.731,0.379l0.354,60.764l7.624-0.896l4.263-178.1L407.489,5l-1.035,40.659l48.327,0.094L454.76,78.572z
	 M365.021,137.412l0.426,36.627l-39.637-0.154l0.417-37.691L365.021,137.412z M355.531,144.74l-20.824-1.527l-0.438,7.268
	l20.608,0.551L355.531,144.74z M355.197,166.324l0.437-7.268l-20.392,0.426l-0.437,7.268L355.197,166.324z M387.421,89.406
	l-27.976,0.402l-0.7-47.211l-23.322-1.112l0.752,55.894l9.753,0.779l0.791-9.744l8.69-0.061l-0.791,9.746l32.012,1.052l-0.173,6.778
	l-7.625,0.897l-0.567,11.649l-7.625,0.898l-0.497-12.488l-13.567-0.332l-0.568,11.65l-8.689,0.059l0.568-11.648l-11.661-0.557
	l0.101,17.361l-8.689,0.059l-0.101-17.359l-12.727-1.396l-1.846,83.225l-300.558-0.281l-9.582-7.557l300.558,0.281l4.017-147.184
	l61.053,1.49l-0.366,46.372l19.286-0.343L387.421,89.406z M316.312,41.79l-1.217,54.558l11.389,0.547l1.217-54.558L316.312,41.79z
	 M411.614,130.953l16.315-0.959l-0.721-14.391l8.69-0.061L435.777,131l39.638,0.152l0.576,62.67l-21.191,0.568l-0.051-8.68
	l12.502-0.508l0.589-44.471l-32.854,0.014l-0.345,13.553l-6.783-0.166l-0.72-14.393l-15.474-0.105L411.614,130.953z"/>
<path fill="#FFFFFF" d="M454.76,78.572l55.952-0.804l0.273,10.585l-64.864-1.04L445.3,55.558l-39.636-0.153l-0.59,44.468
	l73.555,0.98l0.051,8.682l-73.555-0.98l-1.847,83.223l-43.449,0.297l-0.893-7.615l18.221-1.184l-0.08-50.182l-27.976,0.402
	l-0.274-10.584l37.731,0.379l0.354,60.764l7.624-0.896l4.263-178.1L407.489,5l-1.035,40.659l48.327,0.094L454.76,78.572z
	 M365.021,137.412l0.426,36.627l-39.637-0.154l0.417-37.691L365.021,137.412z M355.531,144.74l-20.824-1.527l-0.438,7.268
	l20.608,0.551L355.531,144.74z M355.197,166.324l0.437-7.268l-20.392,0.426l-0.437,7.268L355.197,166.324z M387.421,89.406
	l-27.976,0.402l-0.7-47.211l-23.322-1.112l0.752,55.894l9.753,0.779l0.791-9.744l8.69-0.061l-0.791,9.746l32.012,1.052l-0.173,6.778
	l-7.625,0.897l-0.567,11.649l-7.625,0.898l-0.497-12.488l-13.567-0.332l-0.568,11.65l-8.689,0.059l0.568-11.648l-11.661-0.557
	l0.101,17.361l-8.689,0.059l-0.101-17.359l-12.727-1.396l-1.846,83.225l-300.558-0.281l-9.582-7.557l300.558,0.281l4.017-147.184
	l61.053,1.49l-0.366,46.372l19.286-0.343L387.421,89.406z M316.312,41.79l-1.217,54.558l11.389,0.547l1.217-54.558L316.312,41.79z
	 M411.614,130.953l16.315-0.959l-0.721-14.391l8.69-0.061L435.777,131l39.638,0.152l0.576,62.67l-21.191,0.568l-0.051-8.68
	l12.502-0.508l0.589-44.471l-32.854,0.014l-0.345,13.553l-6.783-0.166l-0.72-14.393l-15.474-0.105L411.614,130.953z"/>
<path fill="#532613" d="M142.297,73.349l17.617-0.253L160,76.428l-20.423-0.327l-0.259-9.999l-12.479-0.048l-0.187,14.001
	l23.16,0.309l0.016,2.733l-23.159-0.309l-0.582,26.203l-13.68,0.094l-0.281-2.398l5.737-0.371l-0.025-15.801l-8.809,0.127
	l-0.087-3.332l11.881,0.119l0.111,19.131l2.4-0.281l1.343-56.077l2.735-0.018l-0.326,12.802l15.217,0.03L142.297,73.349z
	 M114.041,91.875l0.135,11.533l-12.48-0.049l0.132-11.867L114.041,91.875z M111.054,94.182l-6.557-0.48l-0.138,2.289l6.488,0.174
	L111.054,94.182z M110.948,100.979l0.138-2.289l-6.421,0.135l-0.137,2.289L110.948,100.979z M121.095,76.76l-8.809,0.126
	l-0.221-14.865l-7.343-0.35l0.236,17.598l3.071,0.246l0.249-3.068l2.736-0.019l-0.249,3.068l10.079,0.332l-0.055,2.134l-2.4,0.283
	l-0.179,3.668l-2.401,0.281l-0.156-3.932l-4.271-0.104l-0.18,3.668l-2.735,0.018l0.179-3.668l-3.672-0.174l0.032,5.465l-2.736,0.02
	l-0.031-5.467l-4.008-0.439l-0.581,26.205l-94.633-0.09L0,105.318l94.634,0.09l1.265-46.343l19.223,0.469l-0.115,14.601l6.072-0.108
	L121.095,76.76z M98.705,61.768l-0.383,17.178l3.585,0.172l0.384-17.178L98.705,61.768z M128.712,89.842l5.137-0.303l-0.227-4.531
	l2.736-0.018l-0.038,4.865l12.48,0.049l0.181,19.732l-6.672,0.18l-0.017-2.734l3.937-0.16l0.186-14.002l-10.344,0.006l-0.108,4.266
	l-2.137-0.051l-0.227-4.533l-4.872-0.033L128.712,89.842z"/>
</svg>
